<mxfile host="app.diagrams.net" modified="2024-09-01T04:16:09.191Z" agent="Mozilla/5.0 (Macintosh; Intel Mac OS X 10_15_7) AppleWebKit/537.36 (KHTML, like Gecko) Chrome/128.0.0.0 Safari/537.36" version="24.4.13" etag="qzx9EeilHUYBDGptMDh3" type="github">
  <diagram name="Page-1" id="mu7lR5qbzLhd8-RnxhWh">
    <mxGraphModel>
      <root>
        <mxCell id="0" />
        <mxCell id="1" parent="0" />
      </root>
    </mxGraphModel>
  </diagram>
</mxfile>
